# xmcd CD database file
#
# Track frame offsets:
#	150
#	19078
#	38874
#	63018
#	82950
#	100477
#	111786
#	137450
#	160408
#	167578
#
# Disc length: 2475 seconds
#
# Revision: 0
# Processed by: cddbd v1.5.2PL0 Copyright (c) Steve Scherf et al.
# Submitted via: CDex 1.51
#
DISCID=7409a90a
DTITLE=The Billy Webb Band - Like Father, Like Son
DYEAR=2005
DGENRE=Blues
TTITLE0=Blue Bossa
TTITLE1=Empty Promise
TTITLE2=Kate
TTITLE3=Mexico
TTITLE4=Los Pangueros
TTITLE5=Route 66
TTITLE6=After Hours
TTITLE7=Stormy Monday
TTITLE8=Slice of Life
TTITLE9=Sleepwalk
EXTD=YEAR: 2005
EXTT0=
EXTT1=
EXTT2=
EXTT3=
EXTT4=
EXTT5=
EXTT6=
EXTT7=
EXTT8=
EXTT9=
PLAYORDER=
